<svg width="134" height="30" viewBox="0 0 134 30" xmlns="http://www.w3.org/2000/svg"><g fill="none"><path d="M54.018 22.82l-6.243-9.366v9.365H45V9.24h3.208l5.897 8.862V9.24h2.775v13.58h-2.862zm4.515-4.614c0-2.757 2.272-4.856 5.081-4.856 2.792 0 5.03 2.047 5.03 4.804 0 2.792-2.272 4.874-5.064 4.874-2.81 0-5.047-2.03-5.047-4.822zm2.775-.034c0 1.404 1.023 2.376 2.289 2.376 1.266 0 2.272-.972 2.272-2.376 0-1.388-1.023-2.359-2.29-2.359-1.265 0-2.271.971-2.271 2.359zm13.969-4.614v2.654c-.364-.07-.746-.07-.867-.07-1.301 0-2.203.902-2.203 2.62v4.057h-2.653v-9.26h2.566v1.352h.035c.503-1.058 1.44-1.457 2.393-1.457.209 0 .538.052.729.104zm7.814 9.261V21.64h-.035c-.867 1.266-2.254 1.353-2.878 1.353-2.689 0-4.405-2.324-4.405-4.821 0-2.342 1.786-4.787 4.44-4.787.537 0 1.82.104 2.774 1.231h.035V8.702h2.688V22.82h-2.62zm0-4.647c0-1.388-1.023-2.342-2.29-2.342-1.265 0-2.288.954-2.288 2.342 0 1.404 1.023 2.376 2.289 2.376 1.266 0 2.29-.972 2.29-2.376z" fill="#1C1C1C"/><path d="M3.387 29.209A17.773 17.773 0 0 1 0 18.743C0 8.895 7.967.913 17.794.913c9.827 0 17.794 7.982 17.794 17.83 0 3.91-1.257 7.527-3.387 10.466l-8.546-13.906-.826 1.396.838 3.883-5.873-10.069-3.633 6.147.846 3.922-3.079-5.272-8.541 13.9zm128.248-14.202a1.814 1.814 0 0 0 0-3.628c-.995 0-1.807.812-1.807 1.814s.812 1.814 1.807 1.814zm0-3.29c.812 0 1.455.664 1.455 1.476 0 .812-.643 1.469-1.455 1.469-.806 0-1.442-.657-1.442-1.469s.636-1.475 1.442-1.475zm-.278 1.767h.305l.379.744h.467l-.434-.839a.606.606 0 0 0 .36-.575c0-.332-.204-.663-.725-.663h-.772v2.077h.42v-.744zm.65-.663c0 .122-.075.277-.332.277h-.318v-.555h.318c.278 0 .332.156.332.278zm-33.207.347c0-3.03-2.246-4.582-5.112-4.582h-5.313V22.88h2.958v-5.038h2.245c2.994 0 5.221-1.515 5.221-4.674zm-2.976.073c0 1.333-1.205 1.844-2.374 1.844h-2.117V11.38h2.099c1.223 0 2.392.475 2.392 1.862zm7.247 9.822c1.059 0 2.172-.365 2.903-1.406l.036.018v1.205h2.629v-6.042c0-2.63-1.77-3.925-4.199-3.925-2.044 0-4.053.986-4.381 3.067l2.5.566c.22-.822.877-1.333 1.753-1.333 1.023 0 1.534.584 1.534 1.205 0 .401-.237.675-.767.675h-.95c-1.898 0-4.29.658-4.29 2.994v.073c0 1.808 1.534 2.903 3.232 2.903zm.821-2.081c-.602 0-1.186-.292-1.186-.986 0-.767.84-1.114 1.424-1.114h1.698v.22c0 .985-.676 1.88-1.936 1.88zm10.771 2.117c2.666 0 3.962-1.57 3.962-3.23 0-2.171-1.655-2.858-3.464-3.1l-.551-.067c-.788-.113-1.152-.302-1.152-.814 0-.438.42-.803 1.114-.803.822 0 1.278.493 1.424 1.15l2.464-.62c-.2-1.096-1.314-2.72-3.851-2.72-2.063 0-3.852 1.35-3.852 3.121 0 2.062 1.463 2.74 3.157 3.03l.366.055c1.022.146 1.552.329 1.552.95 0 .365-.329.84-1.169.84-.949 0-1.497-.621-1.624-1.333l-2.483.657c.164 1.04 1.241 2.884 4.107 2.884zm9.548 0c-2.866 0-3.943-1.843-4.108-2.884l2.483-.657c.128.712.676 1.332 1.625 1.332.84 0 1.168-.474 1.168-.84 0-.581-.465-.778-1.366-.92l-.552-.085c-1.694-.289-3.157-.967-3.157-3.029 0-1.77 1.79-3.121 3.852-3.121 2.538 0 3.651 1.624 3.852 2.72l-2.464.62c-.146-.657-.603-1.15-1.424-1.15-.694 0-1.114.365-1.114.803 0 .512.363.701 1.151.814l.364.044c1.88.22 3.651.877 3.651 3.122 0 1.661-1.296 3.231-3.961 3.231z" fill="#43A5A1"/></g></svg>